<?xml version="1.0" standalone="no"?>
<!DOCTYPE svg PUBLIC "-//W3C//DTD SVG 20010904//EN"
 "http://www.w3.org/TR/2001/REC-SVG-20010904/DTD/svg10.dtd">
<svg version="1.0" xmlns="http://www.w3.org/2000/svg"
 width="225.000000pt" height="225.000000pt" viewBox="0 0 225.000000 225.000000"
 preserveAspectRatio="xMidYMid meet">

<g transform="translate(0.000000,225.000000) scale(0.100000,-0.100000)"
fill="#000000" stroke="none">
<path d="M199 1964 c-9 -11 -10 -20 -2 -32 8 -14 29 -18 101 -20 l91 -3 58
-92 59 -92 68 -400 c37 -220 70 -409 72 -420 4 -15 -29 -57 -126 -163 -71 -78
-130 -146 -130 -150 0 -22 30 -32 96 -32 l73 0 -21 -46 c-45 -103 18 -217 131
-238 71 -13 160 34 187 101 18 42 17 111 -1 143 -8 14 -14 28 -15 33 0 4 169
7 375 7 206 0 375 -3 375 -7 -1 -5 -7 -19 -15 -33 -8 -14 -14 -44 -15 -68 -1
-141 145 -223 267 -150 71 42 99 150 60 226 l-18 32 85 0 c87 0 113 11 100 44
-6 14 -77 16 -779 18 l-774 3 97 107 97 107 561 1 c437 0 564 3 571 13 6 6 59
212 118 455 75 308 104 447 97 454 -7 7 -248 10 -749 10 l-738 -1 -59 92 c-33
50 -67 98 -75 105 -23 19 -205 16 -222 -4z m1771 -271 c-1 -10 -43 -189 -94
-398 l-94 -380 -535 -3 -535 -2 -6 27 c-3 16 -33 188 -66 383 -33 195 -62 363
-64 373 -4 16 34 17 695 17 659 0 699 -1 699 -17z m-1219 -1150 c29 -17 59
-67 59 -98 0 -25 -27 -72 -52 -89 -12 -9 -37 -16 -56 -16 -67 0 -111 42 -112
106 0 88 87 141 161 97z m1029 2 c40 -21 60 -53 60 -98 0 -55 -52 -107 -107
-107 -21 0 -49 7 -61 16 -25 17 -52 64 -52 89 0 33 32 84 63 99 40 20 61 20
97 1z"/>
</g>
</svg>
